<?xml version="1.0" encoding="iso-8859-1"?>
<!-- Uploaded to: SVG Repo, www.svgrepo.com, Generator: SVG Repo Mixer Tools -->
<!DOCTYPE svg PUBLIC "-//W3C//DTD SVG 1.1//EN" "http://www.w3.org/Graphics/SVG/1.1/DTD/svg11.dtd">
<svg fill="#000000" version="1.1" id="Capa_1" xmlns="http://www.w3.org/2000/svg" xmlns:xlink="http://www.w3.org/1999/xlink" 
	 width="800px" height="800px" viewBox="0 0 567.919 567.919"
	 xml:space="preserve">
<g>
	<g>
		<path d="M555.575,182.057H12.339c-8.449,0-13.813,6.686-11.98,14.936l65.092,292.913c1.833,8.248,10.168,14.936,18.62,14.936
			h94.499c8.449,0,14.718-6.828,14-15.246l-4.82-56.484h-31.952c-8.449,0-10.456-4.844-4.48-10.816L273.14,300.47
			c5.976-5.975,15.661-5.975,21.637,0l121.821,121.824c5.977,5.973,3.969,10.816-4.479,10.816H380.17l-4.82,56.484
			c-0.719,8.418,5.551,15.246,14,15.246h94.499c8.448,0,16.787-6.689,18.62-14.936l65.092-292.913
			C569.391,188.743,564.026,182.057,555.575,182.057z"/>
		<path d="M535.012,161.49l4.303-35.973c1.003-8.391-5.034-15.19-13.482-15.19H287.017c-8.448,0-21.019-3.767-28.075-8.415
			l-46.175-30.416c-7.056-4.651-19.627-8.418-28.079-8.418H35.109c-8.449,0-14.397,6.791-13.284,15.168l11.077,83.248h502.109
			V161.49z"/>
	</g>
</g>
</svg>